<?xml version="1.0" standalone="no"?>
<!DOCTYPE svg PUBLIC "-//W3C//DTD SVG 20010904//EN"
 "http://www.w3.org/TR/2001/REC-SVG-20010904/DTD/svg10.dtd">
<svg version="1.0" xmlns="http://www.w3.org/2000/svg"
 width="260.000000pt" height="260.000000pt" viewBox="0 0 260.000000 260.000000"
 preserveAspectRatio="xMidYMid meet">
<metadata>
Created by potrace 1.11, written by Peter Selinger 2001-2013
</metadata>
<g transform="translate(0.000000,260.000000) scale(0.100000,-0.100000)"
fill="#000000" stroke="none">
<path d="M444 2206 c-21 -7 -53 -64 -199 -358 -157 -318 -172 -353 -164 -382
21 -77 151 -141 292 -145 16 -1 17 -30 17 -459 0 -425 1 -460 18 -474 15 -12
136 -14 883 -13 807 0 867 2 892 18 31 20 28 -47 28 565 l0 362 32 1 c97 2
197 30 237 67 52 47 48 84 -30 247 -171 357 -269 552 -285 565 -14 11 -155 14
-856 14 -461 1 -851 -3 -865 -8z m1797 -419 c84 -167 146 -304 142 -308 -15
-15 -124 -31 -209 -31 -129 0 -234 21 -234 48 0 19 -41 44 -65 39 -11 -2 -23
-4 -28 -4 -4 -1 -12 -12 -19 -25 -18 -42 -77 -57 -228 -58 -130 -1 -203 15
-239 54 -41 44 -74 44 -109 2 -34 -41 -91 -55 -232 -56 -148 -1 -220 19 -247
67 -5 7 -20 17 -36 20 -23 6 -32 2 -60 -28 -41 -45 -94 -58 -238 -58 -97 -1
-229 22 -229 39 0 7 281 575 291 588 6 7 249 10 799 11 l790 0 151 -300z
m-1458 -439 c55 -20 82 -23 232 -23 149 0 177 3 230 22 l60 22 60 -21 c92 -32
322 -36 425 -7 92 25 101 26 170 6 30 -9 71 -19 91 -22 l37 -6 1 -410 1 -410
-93 3 -92 3 -1 234 c0 231 -1 234 -23 252 -21 17 -43 19 -208 19 -179 0 -216
-5 -235 -34 -4 -6 -8 -116 -8 -243 l0 -233 -110 0 -110 0 0 234 0 235 -26 20
c-25 20 -40 21 -215 21 -176 0 -190 -1 -209 -20 -11 -11 -20 -23 -21 -27 0 -5
-1 -110 -2 -235 l-1 -228 -110 0 -111 0 0 410 c0 267 3 410 10 410 46 2 149
28 193 49 1 0 31 -9 65 -21z m300 -643 c-1 -93 -2 -178 -2 -187 -1 -16 -13
-18 -110 -18 l-108 0 -1 190 -1 191 111 -3 111 -3 0 -170z m697 -15 l0 -190
-112 0 -113 0 2 182 c1 101 2 186 2 191 1 4 51 7 111 7 l110 0 0 -190z"/>
<path d="M960 1242 c-63 -9 -86 -77 -39 -113 22 -16 53 -18 378 -18 357 0 381
2 407 37 14 19 6 57 -16 77 -15 13 -63 16 -361 18 -189 1 -355 0 -369 -1z"/>
</g>
</svg>
